<mxfile host="app.diagrams.net" modified="2020-12-23T15:10:12.180Z" agent="5.0 (Macintosh; Intel Mac OS X 10_15_7) AppleWebKit/605.1.15 (KHTML, like Gecko) Version/14.0.2 Safari/605.1.15" etag="pCsM-enBl-7e8rIBgQpt" version="14.1.1" type="github">
  <diagram id="nbx_A-dWP6Z-Bn90uOuP" name="Page-1">
    <mxGraphModel dx="434" dy="633" grid="1" gridSize="10" guides="1" tooltips="1" connect="1" arrows="1" fold="1" page="1" pageScale="1" pageWidth="827" pageHeight="1169" math="0" shadow="0">
      <root>
        <mxCell id="0" />
        <mxCell id="1" parent="0" />
        <mxCell id="ilGmMd8xdXbaabm-3fgU-1" value="" style="shape=image;verticalLabelPosition=bottom;verticalAlign=top;imageAspect=0;aspect=fixed;image=data:image/svg+xml,PHN2ZyB4bWxucz0iaHR0cDovL3d3dy53My5vcmcvMjAwMC9zdmciIHhtbG5zOnhsaW5rPSJodHRwOi8vd3d3LnczLm9yZy8xOTk5L3hsaW5rIiB2ZXJzaW9uPSIxLjEiIGlkPSJMYXllcl8xIiB4PSIwcHgiIHk9IjBweCIgdmlld0JveD0iMCAwIDI4OCAyODgiIHN0eWxlPSJlbmFibGUtYmFja2dyb3VuZDpuZXcgMCAwIDI4OCAyODg7IiB4bWw6c3BhY2U9InByZXNlcnZlIj4mI3hhOzxzdHlsZSB0eXBlPSJ0ZXh0L2NzcyI+JiN4YTsJLnN0MHtmaWxsOiM5NTI3NDY7fSYjeGE7PC9zdHlsZT4mI3hhOzxnPiYjeGE7CTxwYXRoIGNsYXNzPSJzdDAiIGQ9Ik04OS45MSwxODAuNjhINzkuODRjLTAuNywwLTEuMzItMC40My0xLjU2LTEuMDhsLTIzLjcyLTYzLjZjLTAuNDEtMS4wOSwwLjQtMi4yNSwxLjU2LTIuMjVoMTQuMTkgICBjMC43MiwwLDEuMzUsMC40NiwxLjU4LDEuMTRsMTQuMTUsNDIuMjhoMC4xbDE1LjE5LTQyLjMxYzAuMjQtMC42NiwwLjg3LTEuMSwxLjU3LTEuMWgxMy40NWMxLjE5LDAsMS45OSwxLjIxLDEuNTQsMi4zMSAgIGwtMjYuNDQsNjMuNkM5MS4xOSwxODAuMjgsOTAuNTgsMTgwLjY4LDg5LjkxLDE4MC42OHoiLz4mI3hhOwk8cGF0aCBjbGFzcz0ic3QwIiBkPSJNMTcyLjIzLDEzMC4wNmMtMC41MiwwLjgzLTEuNjIsMS4wMy0yLjQxLDAuNDVjLTMuNy0yLjczLTcuOTgtNC41Mi0xMi42My00LjUyICAgYy0xMS4wOSwwLTE5LjEyLDkuNDctMTkuMTIsMjEuMjNjMCwxMi4zNCw2Ljc5LDIxLjIzLDE5LjAzLDIxLjIzYzQuNTIsMCw5LjEyLTEuNzUsMTIuNzgtNC43MWMwLjczLTAuNTksMS43OC0wLjQ5LDIuMzYsMC4yNSAgIGw2LjY0LDguMzhjMC42LDAuNzYsMC40MywxLjg1LTAuMzYsMi40MWMtNi40Myw0LjU3LTEzLjc3LDYuOTctMjEuNjEsNy4wNmMtMTcuNDEsMC4yMS0zMi42My0xMi40MS0zNC45Ni0yOS42NiAgIGMtMi45NS0yMS44NCwxMy45MS0zOS41NywzNS4xNC0zOS41N2M3LjU3LDAsMTMuNjUsMi4yNCwyMC4xNiw2LjE4YzAuOCwwLjQ4LDEuMDYsMS41MiwwLjU2LDIuMzJMMTcyLjIzLDEzMC4wNnoiLz4mI3hhOwk8cGF0aCBjbGFzcz0ic3QwIiBkPSJNMjMxLjk1LDE4MGwtMjcuODEtMzguMTR2MzcuMTZjMCwwLjkyLTAuNzUsMS42Ny0xLjY3LDEuNjdoLTEyLjE2Yy0wLjkyLDAtMS42Ny0wLjc1LTEuNjctMS42N3YtNjMuMyAgIGMwLTEuMDksMC44OC0xLjk3LDEuOTctMS45N2gxMC43YzAuNjMsMCwxLjIyLDAuMywxLjU5LDAuODFsMjgsMzguMjF2LTM3LjA0YzAtMS4wOSwwLjg4LTEuOTcsMS45Ny0xLjk3aDExLjg1ICAgYzAuOTIsMCwxLjY3LDAuNzUsMS42NywxLjY3djYzLjZjMCwwLjkyLTAuNzUsMS42Ny0xLjY3LDEuNjdIMjMzLjNDMjMyLjc3LDE4MC42OCwyMzIuMjcsMTgwLjQzLDIzMS45NSwxODB6Ii8+JiN4YTs8L2c+JiN4YTs8L3N2Zz4=" vertex="1" parent="1">
          <mxGeometry x="80" y="190" width="288" height="288" as="geometry" />
        </mxCell>
      </root>
    </mxGraphModel>
  </diagram>
</mxfile>
